<?xml version="1.0" encoding="UTF-8"?>
<svg width="727px" height="270px" viewBox="0 0 727 270" version="1.1" xmlns="http://www.w3.org/2000/svg" xmlns:xlink="http://www.w3.org/1999/xlink">
    <!-- Generator: Sketch 55.2 (78181) - https://sketchapp.com -->
    <title>类目banner/家用电器@hdpi</title>
    <desc>Created with Sketch.</desc>
    <defs>
        <linearGradient x1="21.4318039%" y1="54.4502063%" x2="97.0835201%" y2="45.0279003%" id="linearGradient-1">
            <stop stop-color="#FFC151" offset="0%"></stop>
            <stop stop-color="#FFE896" offset="100%"></stop>
        </linearGradient>
        <rect id="path-2" x="0" y="0" width="703" height="246" rx="30.9"></rect>
        <filter x="-3.1%" y="-5.7%" width="106.3%" height="117.9%" filterUnits="objectBoundingBox" id="filter-4">
            <feOffset dx="0" dy="8" in="SourceAlpha" result="shadowOffsetOuter1"></feOffset>
            <feGaussianBlur stdDeviation="6" in="shadowOffsetOuter1" result="shadowBlurOuter1"></feGaussianBlur>
            <feColorMatrix values="0 0 0 0 0.97877038   0 0 0 0 0.827898849   0 0 0 0 0.295048541  0 0 0 0.418214598 0" type="matrix" in="shadowBlurOuter1"></feColorMatrix>
        </filter>
        <filter x="-40.6%" y="-44.3%" width="183.3%" height="193.2%" filterUnits="objectBoundingBox" id="filter-5">
            <feMorphology radius="0.2575" operator="dilate" in="SourceAlpha" result="shadowSpreadOuter1"></feMorphology>
            <feOffset dx="0" dy="2" in="shadowSpreadOuter1" result="shadowOffsetOuter1"></feOffset>
            <feGaussianBlur stdDeviation="1.5" in="shadowOffsetOuter1" result="shadowBlurOuter1"></feGaussianBlur>
            <feComposite in="shadowBlurOuter1" in2="SourceAlpha" operator="out" result="shadowBlurOuter1"></feComposite>
            <feColorMatrix values="0 0 0 0 1   0 0 0 0 1   0 0 0 0 1  0 0 0 0.5 0" type="matrix" in="shadowBlurOuter1" result="shadowMatrixOuter1"></feColorMatrix>
            <feMerge>
                <feMergeNode in="shadowMatrixOuter1"></feMergeNode>
                <feMergeNode in="SourceGraphic"></feMergeNode>
            </feMerge>
        </filter>
        <filter x="-29.8%" y="-32.1%" width="160.9%" height="164.1%" filterUnits="objectBoundingBox" id="filter-6">
            <feOffset dx="0" dy="2" in="SourceAlpha" result="shadowOffsetOuter1"></feOffset>
            <feGaussianBlur stdDeviation="2.5" in="shadowOffsetOuter1" result="shadowBlurOuter1"></feGaussianBlur>
            <feColorMatrix values="0 0 0 0 0.928045743   0 0 0 0 0.928045743   0 0 0 0 0.928045743  0 0 0 0.195749563 0" type="matrix" in="shadowBlurOuter1" result="shadowMatrixOuter1"></feColorMatrix>
            <feMerge>
                <feMergeNode in="shadowMatrixOuter1"></feMergeNode>
                <feMergeNode in="SourceGraphic"></feMergeNode>
            </feMerge>
        </filter>
    </defs>
    <g id="前端界面" stroke="none" stroke-width="1" fill="none" fill-rule="evenodd">
        <g id="类目banner" transform="translate(12.000000, 4.000000)">
            <g>
                <mask id="mask-3" fill="white">
                    <use xlink:href="#path-2"></use>
                </mask>
                <g id="蒙版">
                    <use fill="black" fill-opacity="1" filter="url(#filter-4)" xlink:href="#path-2"></use>
                    <use fill="url(#linearGradient-1)" fill-rule="evenodd" xlink:href="#path-2"></use>
                </g>
                <circle id="椭圆形" fill="#FFEBAF" opacity="0.600000024" mask="url(#mask-3)" cx="467" cy="282" r="53"></circle>
                <circle id="椭圆形备份" fill="#FFEBAF" opacity="0.600000024" mask="url(#mask-3)" cx="658" cy="249" r="53"></circle>
                <circle id="椭圆形备份-2" fill="#FFEBAF" opacity="0.600000024" mask="url(#mask-3)" cx="551" cy="287" r="64"></circle>
                <g id="编组" mask="url(#mask-3)">
                    <g transform="translate(197.000000, 159.000000)">
                        <rect id="矩形" fill="#FFEEC3" fill-rule="evenodd" x="0" y="0" width="354" height="42" rx="21"></rect>
                        <text id="二手教材-|-考试用书-|-畅销文学" fill="none" font-family="SourceHanSansCN-Medium, Source Han Sans CN" font-size="22.66" font-weight="400" letter-spacing="0.824000012">
                            <tspan x="20" y="30" fill="#FF7911">电暖电冷 | 电锅电炉 | 台灯照明</tspan>
                        </text>
                    </g>
                </g>
                <path d="M99.1327607,-63.4027289 C108.049336,-63.4027289 108.049336,72.3175909 280.294187,101.712888 C452.539037,131.108186 472.045895,72.3175909 608.447608,134.723613 C744.849321,197.129635 715.345244,235.900881 835.507569,164.840167 C915.615787,117.466357 863.83378,15.8529681 680.161549,-140 C286.86464,-88.9351526 93.188377,-63.4027289 99.1327607,-63.4027289 Z" id="路径-2" fill="#FFFFFF" opacity="0.200000003" mask="url(#mask-3)"></path>
                <path d="M122.12858,-111.298552 C131.042243,-111.298552 167.965656,61.3784724 339.339778,91.7095026 C510.7139,122.040533 533.125514,65.3057669 632.104511,118.120552 C698.09051,153.330408 785.389006,165.795327 894,155.515309 L722.228818,-135 C316.219551,-119.199035 116.186139,-111.298552 122.12858,-111.298552 Z" id="路径-2备份" fill="#FFFFFF" opacity="0.100000001" mask="url(#mask-3)"></path>
                <text id="图书类目" mask="url(#mask-3)" font-family="SourceHanSansCN-Heavy, Source Han Sans CN" font-size="42" font-weight="600" letter-spacing="0.7" fill="#FFFFFF">
                    <tspan x="202" y="88">家用电器</tspan>
                </text>
                <text id="湘大二手街" mask="url(#mask-3)" font-family="SourceHanSansCN-Medium, Source Han Sans CN" font-size="24.72" font-weight="400" letter-spacing="0.824000012" fill="#FFFFFF">
                    <tspan x="199" y="131">湘大二手街</tspan>
                </text>
                <circle id="椭圆形" fill="#FFAD00" mask="url(#mask-3)" cx="101.5" cy="123.5" r="47.5"></circle>
                <g id="教材书籍" filter="url(#filter-5)" transform="translate(75.000000, 100.000000)">
                    <g id="图标/家用电器" transform="translate(0.240000, 0.400000)">
                        <g id="家用电器备份" filter="url(#filter-6)" transform="translate(1.080000, 1.080000)">
                            <path d="M41.7302113,40.5470813 C37.2230429,41.4095812 32.6495904,41.8632725 28.0636479,41.9028188 C23.0308718,41.9430729 18.0060143,41.4890582 13.0588732,40.5470812 C12.2447814,40.315101 11.4989608,39.8835 10.8867042,39.2900625 C10.2181383,38.6342383 9.73191274,37.8100205 9.47738028,36.9010687 L9.47738028,25.0548187 L31.2960423,14.0970375 C31.7356479,14.0970375 38.3297324,13.662675 41.7302113,14.0970375 C42.6672794,14.1552228 43.5577578,14.5331327 44.2579437,15.1697813 C44.9377747,15.8571559 45.3175166,16.7939669 45.31177,17.769375 L45.31177,36.9208125 C45.2940228,38.923737 43.6977591,40.5399571 41.7302113,40.5470813 Z" id="路径" fill="#FFFFFF" fill-rule="nonzero"></path>
                            <path d="M36.0670563,37.355175 C33.3324507,37.6644937 30.384507,37.881675 27.2426197,37.96065 C22.6013963,38.0797151 17.9575907,37.8774237 13.3433239,37.355175 C12.8345324,37.3529941 12.346959,37.1473605 11.9857183,36.7826062 C11.6234781,36.4143083 11.4189785,35.9151407 11.4168169,35.3939625 L11.4168169,21.06 C11.4168169,19.9695828 12.2851323,19.085625 13.3562535,19.085625 L36.0670563,19.085625 C37.1381776,19.085625 38.006493,19.9695828 38.006493,21.06 L38.006493,35.3939625 C37.9993857,36.4792359 37.1331485,37.3551991 36.0670563,37.355175 L36.0670563,37.355175 Z" id="路径" stroke="#FFFFFF" stroke-width="1.944"></path>
                            <path d="M23.2732394,15.9397875 C22.9660564,16.1031997 22.7678443,16.4210312 22.7532676,16.7735579 C22.7386908,17.1260847 22.9099641,17.4597496 23.2025704,17.6488642 C23.4951766,17.8379788 23.8646621,17.8538122 24.1718451,17.6904 L9.48384507,25.0548188 L9.48384507,22.823775 L23.2732394,15.9397875 Z" id="路径" fill="#FFFFFF" fill-rule="nonzero"></path>
                            <path d="M18.5345493,1.79668125 L18.6703099,2.29685625 C14.2617178,2.33343933 9.91375199,3.34625426 5.92821127,5.265 C1.29295775,7.52236875 0.433140845,9.56255625 0.181014085,10.4707687 C-0.135760563,11.609325 0.0129295775,12.557025 0.271521127,14.1299437 C0.872746479,17.769375 1.16366197,20.5005937 3.23239437,22.0537687 C5.30112676,23.6069437 8.22321127,23.1725812 9.32869014,22.9093312 L33.0415352,11.0630812 C36.2092817,8.9899875 36.2157465,7.52895 36.170493,7.11433125 C35.9312958,4.87670625 31.4641268,3.0668625 24.8571127,2.65224375 C24.2429577,1.7506125 23.7580986,1.04641875 23.4542535,0.57915 C23.3235991,0.314144329 23.088641,0.118007853 22.8077746,0.0394875 C22.7101777,0.014415089 22.6079913,0.014415089 22.5103944,0.0394875 L18.8836479,1.2504375 C18.827055,1.28543529 18.7749397,1.32743648 18.728493,1.37548125 C18.6208802,1.49088943 18.5528429,1.63865048 18.5345493,1.79668125 Z M21.236831,2.3166 C20.7067183,2.3166 19.8210423,2.25736875 18.6509155,2.3166 L21.236831,2.3166 Z M24.8506479,2.6325 C23.4930423,2.47455 22.2647324,2.3824125 21.236831,2.3297625 L24.8506479,2.6325 Z M9.76183099,12.1160813 C6.07690141,13.5902813 5.33991549,13.3731 4.95849296,12.9979688 C4.21504225,12.2608688 4.6481831,10.7471813 4.69990141,10.5760688 C5.19122535,8.93075625 6.87207042,8.2528875 9.15414085,7.3315125 C10.9901408,6.58125 13.0782676,5.7783375 15.6512535,6.3048375 C16.433493,6.4627875 18.0884789,6.79843125 18.1919155,7.54869375 C18.2436338,7.95673125 17.8363521,8.47006875 14.2031408,10.1811938 L9.76183099,12.1160813 Z M14.0221268,9.81264375 L14.2031408,10.1811937 L9.76183099,12.1160812 L9.57435211,11.2605187 L13.8992958,9.555975 L14.0221268,9.8060625 L14.0221268,9.81264375 Z" id="形状" fill="#FFFFFF" fill-rule="nonzero"></path>
                        </g>
                    </g>
                </g>
            </g>
        </g>
    </g>
</svg>