<?xml version="1.0" encoding="UTF-8"?>
<svg width="727px" height="270px" viewBox="0 0 727 270" version="1.1" xmlns="http://www.w3.org/2000/svg" xmlns:xlink="http://www.w3.org/1999/xlink">
    <!-- Generator: Sketch 55.2 (78181) - https://sketchapp.com -->
    <title>类目banner/生活用品@hdpi</title>
    <desc>Created with Sketch.</desc>
    <defs>
        <linearGradient x1="21.4318039%" y1="54.4502063%" x2="97.0835201%" y2="45.0279003%" id="linearGradient-1">
            <stop stop-color="#FFC151" offset="0%"></stop>
            <stop stop-color="#FFE896" offset="100%"></stop>
        </linearGradient>
        <rect id="path-2" x="0" y="0" width="703" height="246" rx="30.9"></rect>
        <filter x="-3.1%" y="-5.7%" width="106.3%" height="117.9%" filterUnits="objectBoundingBox" id="filter-4">
            <feOffset dx="0" dy="8" in="SourceAlpha" result="shadowOffsetOuter1"></feOffset>
            <feGaussianBlur stdDeviation="6" in="shadowOffsetOuter1" result="shadowBlurOuter1"></feGaussianBlur>
            <feColorMatrix values="0 0 0 0 0.97877038   0 0 0 0 0.827898849   0 0 0 0 0.295048541  0 0 0 0.418214598 0" type="matrix" in="shadowBlurOuter1"></feColorMatrix>
        </filter>
        <filter x="-26.0%" y="-46.6%" width="154.2%" height="195.5%" filterUnits="objectBoundingBox" id="filter-5">
            <feMorphology radius="0.2575" operator="dilate" in="SourceAlpha" result="shadowSpreadOuter1"></feMorphology>
            <feOffset dx="0" dy="2" in="shadowSpreadOuter1" result="shadowOffsetOuter1"></feOffset>
            <feGaussianBlur stdDeviation="1.5" in="shadowOffsetOuter1" result="shadowBlurOuter1"></feGaussianBlur>
            <feComposite in="shadowBlurOuter1" in2="SourceAlpha" operator="out" result="shadowBlurOuter1"></feComposite>
            <feColorMatrix values="0 0 0 0 1   0 0 0 0 1   0 0 0 0 1  0 0 0 0.5 0" type="matrix" in="shadowBlurOuter1" result="shadowMatrixOuter1"></feColorMatrix>
            <feMerge>
                <feMergeNode in="shadowMatrixOuter1"></feMergeNode>
                <feMergeNode in="SourceGraphic"></feMergeNode>
            </feMerge>
        </filter>
        <filter x="-42.2%" y="-30.7%" width="184.4%" height="161.4%" filterUnits="objectBoundingBox" id="filter-6">
            <feOffset dx="0" dy="2" in="SourceAlpha" result="shadowOffsetOuter1"></feOffset>
            <feGaussianBlur stdDeviation="2.5" in="shadowOffsetOuter1" result="shadowBlurOuter1"></feGaussianBlur>
            <feColorMatrix values="0 0 0 0 0.928045743   0 0 0 0 0.928045743   0 0 0 0 0.928045743  0 0 0 0.195749563 0" type="matrix" in="shadowBlurOuter1" result="shadowMatrixOuter1"></feColorMatrix>
            <feMerge>
                <feMergeNode in="shadowMatrixOuter1"></feMergeNode>
                <feMergeNode in="SourceGraphic"></feMergeNode>
            </feMerge>
        </filter>
    </defs>
    <g id="前端界面" stroke="none" stroke-width="1" fill="none" fill-rule="evenodd">
        <g id="类目banner/生活用品" transform="translate(12.000000, 4.000000)">
            <g id="类目banner">
                <g>
                    <mask id="mask-3" fill="white">
                        <use xlink:href="#path-2"></use>
                    </mask>
                    <g id="蒙版">
                        <use fill="black" fill-opacity="1" filter="url(#filter-4)" xlink:href="#path-2"></use>
                        <use fill="url(#linearGradient-1)" fill-rule="evenodd" xlink:href="#path-2"></use>
                    </g>
                    <circle id="椭圆形" fill="#FFEBAF" opacity="0.600000024" mask="url(#mask-3)" cx="467" cy="282" r="53"></circle>
                    <circle id="椭圆形备份" fill="#FFEBAF" opacity="0.600000024" mask="url(#mask-3)" cx="658" cy="249" r="53"></circle>
                    <circle id="椭圆形备份-2" fill="#FFEBAF" opacity="0.600000024" mask="url(#mask-3)" cx="551" cy="287" r="64"></circle>
                    <g id="编组" mask="url(#mask-3)">
                        <g transform="translate(197.000000, 159.000000)">
                            <rect id="矩形" fill="#FFEEC3" fill-rule="evenodd" x="0" y="0" width="354" height="42" rx="21"></rect>
                            <text id="二手教材-|-考试用书-|-畅销文学" fill="none" font-family="SourceHanSansCN-Medium, Source Han Sans CN" font-size="22.66" font-weight="400" letter-spacing="0.824000012">
                                <tspan x="20" y="30" fill="#FF7911">收纳盒箱 | 清洁洗晒 | 晴雨伞具</tspan>
                            </text>
                        </g>
                    </g>
                    <path d="M99.1327607,-63.4027289 C108.049336,-63.4027289 108.049336,72.3175909 280.294187,101.712888 C452.539037,131.108186 472.045895,72.3175909 608.447608,134.723613 C744.849321,197.129635 715.345244,235.900881 835.507569,164.840167 C915.615787,117.466357 863.83378,15.8529681 680.161549,-140 C286.86464,-88.9351526 93.188377,-63.4027289 99.1327607,-63.4027289 Z" id="路径-2" fill="#FFFFFF" opacity="0.200000003" mask="url(#mask-3)"></path>
                    <path d="M122.12858,-111.298552 C131.042243,-111.298552 167.965656,61.3784724 339.339778,91.7095026 C510.7139,122.040533 533.125514,65.3057669 632.104511,118.120552 C698.09051,153.330408 785.389006,165.795327 894,155.515309 L722.228818,-135 C316.219551,-119.199035 116.186139,-111.298552 122.12858,-111.298552 Z" id="路径-2备份" fill="#FFFFFF" opacity="0.100000001" mask="url(#mask-3)"></path>
                    <text id="图书类目" mask="url(#mask-3)" font-family="SourceHanSansCN-Heavy, Source Han Sans CN" font-size="42" font-weight="600" letter-spacing="0.7" fill="#FFFFFF">
                        <tspan x="202" y="88">生活用品</tspan>
                    </text>
                    <text id="湘大二手街" mask="url(#mask-3)" font-family="SourceHanSansCN-Medium, Source Han Sans CN" font-size="24.72" font-weight="400" letter-spacing="0.824000012" fill="#FFFFFF">
                        <tspan x="199" y="131">湘大二手街</tspan>
                    </text>
                    <circle id="椭圆形" fill="#FFAD00" mask="url(#mask-3)" cx="101.5" cy="123.5" r="47.5"></circle>
                    <g id="教材书籍" filter="url(#filter-5)" transform="translate(75.000000, 100.000000)">
                        <g id="图标/生活用品" transform="translate(0.240000, 0.400000)">
                            <g id="生活用品备份" filter="url(#filter-6)" transform="translate(8.640000, 0.000000)">
                                <path d="M10.9875673,40.564829 C11.2809585,40.9082162 11.6558538,41.1785268 12.0805714,41.3529175 C12.3704295,41.4760525 12.6754533,41.5629553 12.9882122,41.6115091 C13.1167594,41.9297508 13.3151719,42.2174823 13.5698694,42.4550101 C14.6897556,43.3673038 16.329828,43.3673038 17.4497143,42.4550101 C17.6950086,42.2220688 17.8809685,41.9375746 17.9930204,41.6238229 C18.7597553,41.4695517 19.4661846,41.1111858 20.0320163,40.5894567 C22.3202939,38.3544869 19.5526286,34.549497 21.9495673,30.005674 C22.3721264,29.2086958 22.9030608,28.4695137 23.528351,27.8076459 C29.4636886,24.3582016 32.3028629,17.5343799 30.4835129,11.0912416 C28.6641629,4.6481033 22.6279086,0.14962368 15.6964227,0.0712579633 C8.76493688,-0.00710775359 2.62073371,4.35366254 0.644888898,10.7538933 C-1.33095592,17.154124 1.34116431,24.0402551 7.19081633,27.6229376 C7.93335837,28.3010631 8.55906913,29.0887511 9.04444898,29.9564185 C9.22973135,30.2935755 9.39407742,30.6410273 9.53662041,30.9969416 L9.67724082,31.3602012 C9.94782882,32.2145234 10.3933726,33.0079653 10.9875673,33.6936821 C11.0422701,33.7464129 11.1022147,33.7938435 11.1665388,33.8352918 C11.5012873,34.0635651 11.8790791,34.2266964 12.2787184,34.3155332 C14.0351516,34.4929567 15.8050995,34.5094491 17.5647673,34.3647887 C17.8922438,34.6574037 18.0830667,35.0650717 18.0938994,35.4952092 C18.1047321,35.9253466 17.9346552,36.3414478 17.6222939,36.6490141 C16.9220917,36.7515705 16.2148464,36.8030248 15.5065959,36.8029376 C14.0701837,36.800447 12.6420812,36.5929627 11.2688082,36.1872435 C11.0769906,36.2021428 10.8932783,36.2682367 10.7382857,36.3781087 C10.6679755,36.4335211 10.4186939,36.6428571 10.3228163,37.4186318 C10.2624125,37.8270326 10.2624125,38.2416193 10.3228163,38.6500201 C10.3375151,39.3384841 10.5693696,40.0063385 10.9875673,40.564829 Z" id="路径" fill="#FFFFFF" fill-rule="nonzero"></path>
                                <path d="M14.4583347,17.6240644 C14.8929796,17.6548491 15.3468,17.667163 15.8325796,17.661006 C17.265433,17.6317871 18.6837937,17.3780871 20.0320163,16.9098592 C18.9581878,21.0760563 17.8822286,25.2463581 16.8041388,29.4207646 C16.2961097,29.6358732 15.739559,29.7227507 15.1870041,29.6731992 C14.8511633,29.6399392 14.5230941,29.5546988 14.2154449,29.4207646 C14.2154449,29.9256338 11.0195265,16.9098592 11.0195265,16.9098592" id="路径" stroke="#FFFFFF" stroke-width="1.8468" stroke-linecap="round" stroke-linejoin="round"></path>
                                <path d="M19.5014939,36.3842656 C19.9882128,36.2716964 20.468294,36.1339925 20.9396571,35.9717505 C20.9396571,35.2452314 20.9396571,34.5248692 20.9396571,33.804507 C20.385698,33.9399598 19.8679592,34.0507847 19.3864408,34.1369819 C18.6833388,34.2662777 18.2742612,34.3155332 18.1080735,34.340161 L17.5264163,34.3894165 C17.87465,34.6683821 18.0848619,35.0756824 18.1055384,35.5115066 C18.1262149,35.9473307 17.9554454,36.3714017 17.6350776,36.6797988 C18.2633971,36.6217489 18.8869461,36.5230146 19.5014939,36.3842656 L19.5014939,36.3842656 Z" id="路径" fill="#FFFFFF" fill-rule="nonzero"></path>
                            </g>
                        </g>
                    </g>
                </g>
            </g>
        </g>
    </g>
</svg>