<?xml version="1.0" encoding="UTF-8"?>
<svg width="41px" height="41px" viewBox="0 0 41 41" version="1.1" xmlns="http://www.w3.org/2000/svg" xmlns:xlink="http://www.w3.org/1999/xlink">
    <!-- Generator: Sketch 55.2 (78181) - https://sketchapp.com -->
    <title>小icon/叉@hdpi</title>
    <desc>Created with Sketch.</desc>
    <g id="小icon/叉" stroke="none" stroke-width="1" fill="none" fill-rule="evenodd">
        <circle id="椭圆形" fill="#F5F5F5" cx="20.5" cy="20.5" r="20.5"></circle>
        <g id="cha" transform="translate(12.000000, 11.000000)" fill="#3F3F3F">
            <path d="M10.5125257,9.00001536 L17.2225421,2.28999896 C17.6350426,1.87749848 17.6350426,1.18999682 17.2225421,0.777496339 C16.8100416,0.364995859 16.12254,0.364995859 15.7100395,0.777496339 L9.00002309,7.48751274 L2.29000669,0.777496339 C1.87750621,0.364995859 1.19000455,0.364995859 0.777504073,0.777496339 C0.365003593,1.18999682 0.365003593,1.87749848 0.777504073,2.28999896 L7.48752048,9.00001536 L0.777504073,15.7100318 C0.365003593,16.1225322 0.365003593,16.8100339 0.777504073,17.2225344 C0.997504243,17.4425346 1.24500376,17.5250339 1.52000494,17.5250339 C1.79500612,17.5250339 2.07000472,17.4150337 2.2625058,17.2225344 L8.9725222,10.512518 L15.6825386,17.2225344 C15.9025388,17.4425346 16.1500383,17.5250339 16.4250395,17.5250339 C16.7000406,17.5250339 16.9750392,17.4150337 17.1675403,17.2225344 C17.5800408,16.8100339 17.5800408,16.1225322 17.1675403,15.7100318 L10.5125412,9.00001536 L10.5125257,9.00001536 Z" id="路径"></path>
        </g>
    </g>
</svg>