<?xml version="1.0" encoding="UTF-8"?>
<svg width="727px" height="270px" viewBox="0 0 727 270" version="1.1" xmlns="http://www.w3.org/2000/svg" xmlns:xlink="http://www.w3.org/1999/xlink">
    <!-- Generator: Sketch 55.2 (78181) - https://sketchapp.com -->
    <title>类目banner/数码产品@hdpi</title>
    <desc>Created with Sketch.</desc>
    <defs>
        <linearGradient x1="21.4318039%" y1="54.4502063%" x2="97.0835201%" y2="45.0279003%" id="linearGradient-1">
            <stop stop-color="#FFC151" offset="0%"></stop>
            <stop stop-color="#FFE896" offset="100%"></stop>
        </linearGradient>
        <rect id="path-2" x="0" y="0" width="703" height="246" rx="30.9"></rect>
        <filter x="-3.1%" y="-5.7%" width="106.3%" height="117.9%" filterUnits="objectBoundingBox" id="filter-4">
            <feOffset dx="0" dy="8" in="SourceAlpha" result="shadowOffsetOuter1"></feOffset>
            <feGaussianBlur stdDeviation="6" in="shadowOffsetOuter1" result="shadowBlurOuter1"></feGaussianBlur>
            <feColorMatrix values="0 0 0 0 0.97877038   0 0 0 0 0.827898849   0 0 0 0 0.295048541  0 0 0 0.418214598 0" type="matrix" in="shadowBlurOuter1"></feColorMatrix>
        </filter>
        <filter x="-40.6%" y="-42.0%" width="183.3%" height="186.4%" filterUnits="objectBoundingBox" id="filter-5">
            <feMorphology radius="0.2575" operator="dilate" in="SourceAlpha" result="shadowSpreadOuter1"></feMorphology>
            <feOffset dx="0" dy="2" in="shadowSpreadOuter1" result="shadowOffsetOuter1"></feOffset>
            <feGaussianBlur stdDeviation="1.5" in="shadowOffsetOuter1" result="shadowBlurOuter1"></feGaussianBlur>
            <feComposite in="shadowBlurOuter1" in2="SourceAlpha" operator="out" result="shadowBlurOuter1"></feComposite>
            <feColorMatrix values="0 0 0 0 1   0 0 0 0 1   0 0 0 0 1  0 0 0 0.5 0" type="matrix" in="shadowBlurOuter1" result="shadowMatrixOuter1"></feColorMatrix>
            <feMerge>
                <feMergeNode in="shadowMatrixOuter1"></feMergeNode>
                <feMergeNode in="SourceGraphic"></feMergeNode>
            </feMerge>
        </filter>
        <filter x="-29.3%" y="-34.6%" width="158.7%" height="169.2%" filterUnits="objectBoundingBox" id="filter-6">
            <feOffset dx="0" dy="2" in="SourceAlpha" result="shadowOffsetOuter1"></feOffset>
            <feGaussianBlur stdDeviation="2.5" in="shadowOffsetOuter1" result="shadowBlurOuter1"></feGaussianBlur>
            <feColorMatrix values="0 0 0 0 0.928045743   0 0 0 0 0.928045743   0 0 0 0 0.928045743  0 0 0 0.195749563 0" type="matrix" in="shadowBlurOuter1" result="shadowMatrixOuter1"></feColorMatrix>
            <feMerge>
                <feMergeNode in="shadowMatrixOuter1"></feMergeNode>
                <feMergeNode in="SourceGraphic"></feMergeNode>
            </feMerge>
        </filter>
    </defs>
    <g id="前端界面" stroke="none" stroke-width="1" fill="none" fill-rule="evenodd">
        <g id="类目banner/生活用品" transform="translate(12.000000, 4.000000)">
            <g id="类目banner">
                <g>
                    <mask id="mask-3" fill="white">
                        <use xlink:href="#path-2"></use>
                    </mask>
                    <g id="蒙版">
                        <use fill="black" fill-opacity="1" filter="url(#filter-4)" xlink:href="#path-2"></use>
                        <use fill="url(#linearGradient-1)" fill-rule="evenodd" xlink:href="#path-2"></use>
                    </g>
                    <circle id="椭圆形" fill="#FFEBAF" opacity="0.600000024" mask="url(#mask-3)" cx="467" cy="282" r="53"></circle>
                    <circle id="椭圆形备份" fill="#FFEBAF" opacity="0.600000024" mask="url(#mask-3)" cx="658" cy="249" r="53"></circle>
                    <circle id="椭圆形备份-2" fill="#FFEBAF" opacity="0.600000024" mask="url(#mask-3)" cx="551" cy="287" r="64"></circle>
                    <g id="编组" mask="url(#mask-3)">
                        <g transform="translate(197.000000, 159.000000)">
                            <rect id="矩形" fill="#FFEEC3" fill-rule="evenodd" x="0" y="0" width="354" height="42" rx="21"></rect>
                            <text id="二手教材-|-考试用书-|-畅销文学" fill="none" font-family="SourceHanSansCN-Medium, Source Han Sans CN" font-size="22.66" font-weight="400" letter-spacing="0.824000012">
                                <tspan x="20" y="30" fill="#FF7911">手机电脑 | 拍摄设备 | 相关配件</tspan>
                            </text>
                        </g>
                    </g>
                    <path d="M99.1327607,-63.4027289 C108.049336,-63.4027289 108.049336,72.3175909 280.294187,101.712888 C452.539037,131.108186 472.045895,72.3175909 608.447608,134.723613 C744.849321,197.129635 715.345244,235.900881 835.507569,164.840167 C915.615787,117.466357 863.83378,15.8529681 680.161549,-140 C286.86464,-88.9351526 93.188377,-63.4027289 99.1327607,-63.4027289 Z" id="路径-2" fill="#FFFFFF" opacity="0.200000003" mask="url(#mask-3)"></path>
                    <path d="M122.12858,-111.298552 C131.042243,-111.298552 167.965656,61.3784724 339.339778,91.7095026 C510.7139,122.040533 533.125514,65.3057669 632.104511,118.120552 C698.09051,153.330408 785.389006,165.795327 894,155.515309 L722.228818,-135 C316.219551,-119.199035 116.186139,-111.298552 122.12858,-111.298552 Z" id="路径-2备份" fill="#FFFFFF" opacity="0.100000001" mask="url(#mask-3)"></path>
                    <text id="图书类目" mask="url(#mask-3)" font-family="SourceHanSansCN-Heavy, Source Han Sans CN" font-size="42" font-weight="600" letter-spacing="0.7" fill="#FFFFFF">
                        <tspan x="202" y="88">数码产品</tspan>
                    </text>
                    <text id="湘大二手街" mask="url(#mask-3)" font-family="SourceHanSansCN-Medium, Source Han Sans CN" font-size="24.72" font-weight="400" letter-spacing="0.824000012" fill="#FFFFFF">
                        <tspan x="199" y="131">湘大二手街</tspan>
                    </text>
                    <circle id="椭圆形" fill="#FFAD00" mask="url(#mask-3)" cx="101.5" cy="123.5" r="47.5"></circle>
                    <g id="教材书籍" filter="url(#filter-5)" transform="translate(75.000000, 100.000000)" fill="#FFFFFF">
                        <g id="图标/数码产品" transform="translate(0.240000, 0.400000)">
                            <g id="数码产品备份" filter="url(#filter-6)" transform="translate(1.080000, 2.160000)">
                                <path d="M4.39425,0.106229508 L10.6572,0.106229508 C11.0412517,0.1055022 11.414184,0.235365966 11.715,0.474580328 C11.9930958,0.714765158 12.1855509,1.03915973 12.26325,1.39868852 L12.36,2.30340984 C22.53165,2.16123934 29.98785,2.17416393 31.51005,2.30340984 C32.0969439,2.32273993 32.6575297,2.55198661 33.0903,2.94963934 C33.5234124,3.39750118 33.7481913,4.00743773 33.7095,4.62983607 L33.7095,22.149118 C33.7095,22.8629234 34.2870527,23.441577 34.9995,23.441577 C35.7119473,23.441577 36.2895,22.8629234 36.2895,22.149118 L36.2895,6.56852459 C36.2863865,6.17876083 36.3429437,5.79082325 36.4572,5.41823607 C36.6805542,4.72775869 37.0653365,4.10074167 37.5795,3.58940656 C38.4475411,2.75743492 39.6032366,2.29427549 40.8045,2.29694754 C42.0069283,2.2881359 43.1648415,2.75218403 44.0295,3.58940656 C44.6096755,4.15704883 45.0206242,4.87534225 45.2163,5.66380328 C45.2875271,5.96000882 45.3221864,6.26385569 45.3195,6.56852459 L45.3195,31.1252459 C45.3391733,32.0929719 45.1174742,33.0503165 44.6745,33.9104951 C43.72635,35.6876262 41.94615,36.3661672 40.8045,36.7215934 C33.7998,38.8929246 22.7445,38.8285056 22.7445,38.8285056 C22.7445,38.8285056 9.95415,38.7572164 3.3945,36.0172033 C2.32585369,35.6197615 1.41863842,34.8789716 0.8145,33.9104951 C0.491870767,33.3677293 0.273129369,32.769427 0.1695,32.1462885 L0.1695,6.52328852 C0.0803503521,6.06011604 0.0803503521,5.58414298 0.1695,5.12097049 C0.34560822,4.28948763 0.800921435,3.54363147 1.4595,3.0078 C1.83934743,2.69219082 2.27776469,2.45499421 2.7495,2.30987213 L2.8011,1.39868852 C2.92518593,0.623688307 3.61183198,0.0666397722 4.39425,0.106229508 Z" id="路径" fill-rule="nonzero"></path>
                                <path d="M33.7095,38.1756098 L33.7095,22.0780328 C33.7095,22.7918382 34.2870527,23.3704918 34.9995,23.3704918 C35.7119473,23.3704918 36.2895,22.7918382 36.2895,22.0780328 L36.2895,37.807259 L33.7095,38.1756098 Z" id="路径" fill-rule="nonzero"></path>
                            </g>
                        </g>
                    </g>
                </g>
            </g>
        </g>
    </g>
</svg>