<?xml version="1.0" encoding="UTF-8"?>
<svg width="153px" height="164px" viewBox="0 0 153 164" version="1.1" xmlns="http://www.w3.org/2000/svg" xmlns:xlink="http://www.w3.org/1999/xlink">
    <!-- Generator: Sketch 55.2 (78181) - https://sketchapp.com -->
    <title>资源 17@hdpi</title>
    <desc>Created with Sketch.</desc>
    <defs>
        <linearGradient x1="50.1432479%" y1="9.39631534%" x2="49.4505859%" y2="85.9734362%" id="linearGradient-1">
            <stop stop-color="#FFE8C3" stop-opacity="0" offset="0%"></stop>
            <stop stop-color="#FFE7C0" stop-opacity="0.02" offset="11%"></stop>
            <stop stop-color="#FDE3B6" stop-opacity="0.09" offset="24%"></stop>
            <stop stop-color="#FBDDA7" stop-opacity="0.19" offset="38%"></stop>
            <stop stop-color="#F8D491" stop-opacity="0.34" offset="53%"></stop>
            <stop stop-color="#F4C875" stop-opacity="0.53" offset="69%"></stop>
            <stop stop-color="#EFBB53" stop-opacity="0.76" offset="85%"></stop>
            <stop stop-color="#EAAC2F" offset="100%"></stop>
            <stop stop-color="#EEB84D" stop-opacity="0.69" offset="100%"></stop>
        </linearGradient>
        <linearGradient x1="19.8951083%" y1="11.618123%" x2="81.3141974%" y2="89.1877023%" id="linearGradient-2">
            <stop stop-color="#FFE8C3" stop-opacity="0" offset="29%"></stop>
            <stop stop-color="#FEE6BD" stop-opacity="0.04" offset="35%"></stop>
            <stop stop-color="#FCDFAE" stop-opacity="0.14" offset="46%"></stop>
            <stop stop-color="#F8D594" stop-opacity="0.32" offset="59%"></stop>
            <stop stop-color="#F3C771" stop-opacity="0.56" offset="75%"></stop>
            <stop stop-color="#EDB444" stop-opacity="0.86" offset="92%"></stop>
            <stop stop-color="#EAAC2F" offset="100%"></stop>
        </linearGradient>
    </defs>
    <g id="前端界面" stroke="none" stroke-width="1" fill="none" fill-rule="evenodd">
        <g id="搜索结果页（空）" transform="translate(-278.000000, -470.000000)" fill-rule="nonzero">
            <g id="编组" transform="translate(161.000000, 461.000000)">
                <g id="资源-17" transform="translate(116.000000, 0.000000)">
                    <g id="纸箱后部" transform="translate(6.000000, 57.000000)">
                        <path d="M74.15,18.29 L6.15,22.47 C5.52956676,22.4954017 4.97907431,22.0751785 4.84,21.47 L0.65,6.94 C0.330438626,5.85231566 0.532943064,4.67794426 1.1983305,3.760101 C1.86371794,2.84225774 2.9168706,2.28456096 4.05,2.25 L65.24,0.94 C66.6352374,0.908568122 67.9222509,1.68857628 68.54,2.94 L75.23,16.38 C75.433602,16.7729699 75.4250162,17.2421753 75.2071739,17.6274334 C74.9893316,18.0126916 74.5916898,18.2619071 74.15,18.29 Z" id="路径" fill="#FFE9B5"></path>
                        <path d="M137.74,23.58 L77.74,18.31 C77.3712645,18.2737719 77.0431355,18.0606051 76.860168,17.7384231 C76.6772004,17.4162412 76.66222,17.0252369 76.82,16.69 L83.82,1.83 C84.2633357,0.87096489 85.2447636,0.277359271 86.3,0.33 L141.47,3.25 C142.277801,3.30225877 143.016976,3.72222952 143.47541,4.38939688 C143.933843,5.05656423 144.060856,5.89717265 143.82,6.67 L138.92,22.79 C138.765203,23.300898 138.271341,23.6315344 137.74,23.58 L137.74,23.58 Z" id="路径" fill="#FFE9B5"></path>
                        <polygon id="路径" fill="#EAAC2F" points="138.64 23.66 76.18 32.6 5.11 22.53 76.11 17.59"></polygon>
                    </g>
                    <g id="纸箱前部" transform="translate(0.000000, 39.000000)">
                        <path d="M87.66,0.45 C81.33,1.86 79.12,6.88 75.81,11.86 C72.03,17.55 65.66,21.77 66.43,29.46 C67.05,35.61 72,39.19 78,38.41 C82.48,37.82 91.49,33.79 92.26,28.54 C93.09,22.95 83.39,24.54 80.7,25.64 C74.32,28.15 70.37,34.11 68,40.27 C66,45.27 64.21,52.94 69.17,56.92 C73.35,60.27 80.26,58.73 85.11,58.39 C87.02,58.26 87.04,55.26 85.11,55.39 C81.93,55.62 78.68,56.13 75.5,55.85 C68.7,55.27 68.26,49.3 69.9,43.85 C71.0615767,39.6872199 73.1388805,35.8366913 75.98,32.58 C77.8653171,30.4495463 80.290554,28.8672692 83,28 C84.3259321,27.590251 85.7144544,27.420919 87.1,27.5 C88.7266667,28.5866667 88.81,29.5633333 87.35,30.43 C85.2,35 74.84,37.2 71.35,33.71 C67.05,29.35 70.35,22.79 73.68,19.07 C75.9398006,16.6174412 77.9746494,13.966783 79.76,11.15 C82.01,7.47 83.96,4.32 88.45,3.32 C90.34,2.9 89.54,7.10542736e-15 87.66,0.43 L87.66,0.45 Z" id="路径" fill="#1B3E5E"></path>
                        <polygon id="路径" fill="#FED269" points="82.63 133.44 13.35 112.44 12.01 40.08 82.3 50.1"></polygon>
                        <polygon id="路径" fill="url(#linearGradient-1)" points="82.4 133.44 13.12 112.44 11.78 40.08 82.06 50.1"></polygon>
                        <polygon id="路径" fill="#EAAC2F" points="82.63 133.44 143.52 109.61 143.91 41.01 82.3 50.1"></polygon>
                        <path d="M66,72.65 L3,59.11 C2.16272194,58.9171171 1.47640479,58.3200796 1.16944647,57.5175742 C0.862488155,56.7150688 0.975172671,55.8124132 1.47,55.11 L12,40.08 L82.44,50 L70.73,70.52 C69.7931375,72.192741 67.8734913,73.0571905 66,72.65 L66,72.65 Z" id="路径" fill="#FFE896"></path>
                        <path d="M151.57,57.24 L92.63,72.63 C91.3510373,72.9368509 90.0493848,72.2166032 89.63,70.97 L82.44,50 L143.86,41.21 L152.77,53.95 C153.163703,54.5230293 153.256012,55.2510669 153.01778,55.9042206 C152.779547,56.5573743 152.240183,57.0550139 151.57,57.24 L151.57,57.24 Z" id="路径" fill="#FED269"></path>
                        <path d="M91.1,126.65 L98.57,123.76 C99.3951238,123.437525 99.9413741,122.645858 99.9501162,121.76 L99.9501162,113.48 C99.9568085,112.825967 99.6641429,112.204732 99.1554993,111.793529 C98.6468557,111.382327 97.9780909,111.226314 97.34,111.37 L89.83,113.1 C88.8457241,113.326407 88.1537353,114.210151 88.17,115.22 L88.17,124.66 C88.1697192,125.369398 88.5208048,126.03288 89.107648,126.431453 C89.6944912,126.830026 90.4407097,126.911881 91.1,126.65 Z" id="路径" fill="#50759B" opacity="0.7"></path>
                        <path d="M18.48,112.54 L53.38,122.6 C54.3610887,122.877897 55.4157923,122.676201 56.2251176,122.055915 C57.0344428,121.43563 57.5033429,120.4696 57.49,119.45 L57.49,109.45 C57.5247909,107.91681 56.4894144,106.565415 55,106.2 L20,98.43 C19.0341375,98.222536 18.0263934,98.4670605 17.2630229,99.0941148 C16.4996524,99.7211692 16.0640681,100.662236 16.08,101.65 L16.08,109.4 C16.0820347,110.86756 17.0644243,112.152853 18.48,112.54 Z" id="路径" fill="#FFFFFF"></path>
                    </g>
                    <ellipse id="椭圆形" fill="#FED269" transform="translate(79.427089, 30.427500) rotate(-47.070000) translate(-79.427089, -30.427500) " cx="79.4270888" cy="30.4274996" rx="21.27" ry="21.63"></ellipse>
                    <ellipse id="椭圆形" fill="url(#linearGradient-2)" transform="translate(79.427089, 30.427500) rotate(-47.070000) translate(-79.427089, -30.427500) " cx="79.4270888" cy="30.4274996" rx="21.27" ry="21.63"></ellipse>
                    <path d="M86.15,18.87 C89.5063374,19.931636 91.9560196,22.824594 92.45,26.31 C92.75,28.21 95.64,27.41 95.34,25.51 C94.5701133,21.0236195 91.3475012,17.3489142 87,16 C85.15,15.43 84.36,18.32 86.2,18.9 L86.15,18.87 Z" id="路径" fill="#FFFFFF"></path>
                    <path d="M93.06,32.39 L93.06,34.39 C93.06,35.2184271 93.7315729,35.89 94.56,35.89 C95.3884271,35.89 96.06,35.2184271 96.06,34.39 L96.06,32.39 C96.06,31.5615729 95.3884271,30.89 94.56,30.89 C93.7315729,30.89 93.06,31.5615729 93.06,32.39 Z" id="路径" fill="#FFFFFF"></path>
                </g>
            </g>
        </g>
    </g>
</svg>