<?xml version="1.0" encoding="UTF-8"?>
<svg width="355px" height="353px" viewBox="0 0 355 353" version="1.1" xmlns="http://www.w3.org/2000/svg" xmlns:xlink="http://www.w3.org/1999/xlink">
    <!-- Generator: Sketch 55.2 (78181) - https://sketchapp.com -->
    <title>资源 3@hdpi</title>
    <desc>Created with Sketch.</desc>
    <g id="前端界面" stroke="none" stroke-width="1" fill="none" fill-rule="evenodd" opacity="0.200000003">
        <g id="我的" transform="translate(-286.000000, -129.000000)">
            <g id="资源-3" transform="translate(298.000000, 136.000000)">
                <path d="M297.168136,269.976 C295.669652,269.025952 294.710054,267.42741 294.579661,265.664 L291.597288,227.528 C291.486089,225.862531 290.811767,224.283539 289.684068,223.048 L277.248136,209.328 C275.103773,206.99294 275.267531,203.370028 277.613898,201.236 C279.960266,199.101972 283.600722,199.26494 285.745085,201.6 L301.332203,218.792 C302.066004,219.621589 302.518812,220.659986 302.626441,221.76 L305.946441,264.656 C306.070403,266.151323 305.586219,267.633609 304.60243,268.770568 C303.618641,269.907527 302.217541,270.604052 300.71322,270.704 C299.483209,270.856525 298.237009,270.600612 297.168136,269.976 L297.168136,269.976 Z" id="路径" stroke="#FFFFFF" stroke-width="6.104" fill="#FFFFFF" fill-rule="nonzero"></path>
                <path d="M242.472542,312.76 C240.862285,311.731865 239.887255,309.959956 239.884068,308.056 L238.589831,225.96 C238.544882,224.335201 239.039315,222.740956 239.99661,221.424 L252.826441,203.448 C253.688829,202.192076 255.027503,201.339323 256.534648,201.085822 C258.041793,200.832321 259.587716,201.199886 260.816949,202.104 C262.062467,202.961816 262.907889,204.283116 263.162054,205.76914 C263.416219,207.255164 263.057662,208.780409 262.167458,210 L251.475932,224.952 C250.518637,226.268956 250.024204,227.863201 250.069153,229.488 L251.250847,307.888 C251.250847,310.980795 248.731501,313.488 245.623729,313.488 C244.526534,313.533119 243.437555,313.281539 242.472542,312.76 L242.472542,312.76 Z" id="路径" stroke="#FFFFFF" stroke-width="6.104" fill="#FFFFFF" fill-rule="nonzero"></path>
                <path d="M34.2691525,269.976 C35.7676366,269.025952 36.7272338,267.42741 36.8576271,265.664 L39.7837288,227.528 C39.9396089,225.862895 40.6301952,224.292019 41.7532203,223.048 L54.1328814,209.328 C55.5200408,207.827485 55.9974369,205.704477 55.3852391,203.758693 C54.7730414,201.81291 53.1642572,200.339961 51.1649001,199.894693 C49.1655429,199.449425 47.0793627,200.099484 45.6922034,201.6 L30.0488136,218.96 C29.3107394,219.781527 28.8743323,220.827804 28.8108475,221.928 L25.4908475,264.824 C25.3668851,266.319323 25.8510692,267.801609 26.8348583,268.938568 C27.8186475,270.075527 29.2197472,270.772052 30.7240678,270.872 C31.9730511,270.97453 33.2206853,270.659197 34.2691525,269.976 L34.2691525,269.976 Z" id="路径" stroke="#FFFFFF" stroke-width="6.104" fill="#FFFFFF" fill-rule="nonzero"></path>
                <path d="M88.9647458,312.76 C90.5750028,311.731865 91.5500332,309.959956 91.5532203,308.056 L92.8474576,225.96 C92.839631,224.342816 92.3500647,222.764266 91.440678,221.424 L78.779661,203.448 C77.9176913,202.208484 76.5899927,201.367137 75.0967722,201.114197 C73.6035517,200.861257 72.0709208,201.218085 70.8454237,202.104 C69.5999055,202.961816 68.7544844,204.283116 68.5003192,205.76914 C68.246154,207.255164 68.6047105,208.780409 69.4949153,210 L80.1864407,224.952 C81.1185151,226.281346 81.610319,227.867111 81.5932203,229.488 L80.3552542,307.888 C80.3552542,310.980795 82.8746011,313.48819 85.9823729,313.48819 C87.021882,313.496097 88.0469847,313.245868 88.9647458,312.76 L88.9647458,312.76 Z" id="路径" stroke="#FFFFFF" stroke-width="6.104" fill="#FFFFFF" fill-rule="nonzero"></path>
                <path d="M210.904407,323.456 C209.158628,322.329534 208.020385,320.475931 207.809492,318.416 L196.555254,205.128 C196.461946,203.721416 195.839027,202.401594 194.810847,201.432 L173.484068,180.32 C170.811384,177.675661 170.798787,173.375803 173.455932,170.716 C176.113077,168.056197 180.433757,168.043661 183.106441,170.688 L207.471864,194.88 C208.731068,196.107083 209.526113,197.729072 209.722712,199.472 L221.427119,317.072 C221.697522,318.915572 221.193231,320.788609 220.032831,322.25066 C218.872431,323.71271 217.158313,324.634765 215.293559,324.8 C213.720621,324.853291 212.175166,324.380058 210.904407,323.456 L210.904407,323.456 Z" id="路径" stroke="#FFFFFF" stroke-width="6.104" fill="#FFFFFF" fill-rule="nonzero"></path>
                <path d="M120.645424,323.344 C122.36042,322.187271 123.440823,320.305677 123.571525,318.248 L132.068475,204.736 C132.191655,203.332113 132.786326,202.010415 133.75661,200.984 L154.464407,179.2 C156.153123,177.449399 156.775103,174.935199 156.096054,172.604475 C155.417005,170.273752 153.54009,168.480597 151.172325,167.900475 C148.80456,167.320353 146.305665,168.041398 144.616949,169.792 L120.814237,194.544 C119.63086,195.826831 118.899927,197.45859 118.732203,199.192 L109.953898,317.24 C109.733776,319.083861 110.283627,320.936833 111.474954,322.365887 C112.666281,323.794941 114.394694,324.674856 116.256271,324.801248 C117.84383,324.830072 119.393507,324.316003 120.645424,323.344 Z" id="路径" stroke="#FFFFFF" stroke-width="6.104" fill="#FFFFFF" fill-rule="nonzero"></path>
                <ellipse id="椭圆形" stroke="#FFFFFF" stroke-width="24.304" cx="165.718644" cy="169.568" rx="164.987119" ry="164.192"></ellipse>
                <path d="M213.830508,62.832 C213.830508,89.3372497 192.239706,110.824 165.606102,110.824 C138.972497,110.824 117.381695,89.3372497 117.381695,62.832" id="路径" stroke="#FFFFFF" stroke-width="18.256" stroke-linecap="round"></path>
                <ellipse id="椭圆形" fill="#FFFFFF" fill-rule="nonzero" cx="116.425085" cy="63.56" rx="10.6915254" ry="10.64"></ellipse>
                <ellipse id="椭圆形" fill="#FFFFFF" fill-rule="nonzero" cx="214.618305" cy="64.68" rx="10.6915254" ry="10.64"></ellipse>
            </g>
        </g>
    </g>
</svg>