<?xml version="1.0" encoding="UTF-8"?>
<svg width="26px" height="26px" viewBox="0 0 26 26" version="1.1" xmlns="http://www.w3.org/2000/svg" xmlns:xlink="http://www.w3.org/1999/xlink">
    <!-- Generator: Sketch 55.2 (78181) - https://sketchapp.com -->
    <title>小icon/时间@hdpi</title>
    <desc>Created with Sketch.</desc>
    <g id="小icon/时间" stroke="none" stroke-width="1" fill="#ffffff" fill-rule="evenodd">
        <g id="时间">
            <path fill="#ffffff" d="M13.0000128,24.0000256 L13.0000123,24.0000256 C6.92486853,24.0000256 1.99999952,19.0751566 1.99999952,13.0000128 C1.99999952,6.92486901 6.92486853,2 13.0000123,2 L13.0000118,2 C19.0751556,2 24.0000246,6.92486901 24.0000246,13.0000128 C24.0000246,19.0751566 19.0751556,24.0000256 13.0000118,24.0000256 L13.0000128,24.0000256 Z M3.40800164,13.0000128 L3.40800164,13.0000142 C3.40800164,18.2967782 7.70187382,22.5906504 12.9986378,22.5906504 C18.2954018,22.5906504 22.589274,18.2967782 22.589274,13.0000142 L22.589274,13.0000142 C22.589274,7.70325027 18.2954018,3.40937809 12.9986378,3.40937809 C7.70187382,3.40937809 3.40800164,7.70325027 3.40800164,13.0000142 L3.40800164,13.0000128 Z M17.3133928,16.4182668 L12.4183871,14.5125146 L12.4183871,14.5125146 C12.1537874,14.3890076 11.9913782,14.1165076 12.0086366,13.8250138 C12.0045116,13.7947637 11.9921366,13.7713887 11.9921366,13.7425137 L11.9921366,6.6447554 L11.9921366,6.64475552 C12.0094825,6.24873143 12.3445839,5.94175373 12.740608,5.95910023 C13.1123332,5.9753818 13.4099824,6.27303243 13.4262633,6.64475552 L13.4262633,13.3478883 L17.9211435,15.1230154 L17.9211435,15.1230154 C18.278818,15.2908412 18.4327193,15.7168421 18.2648939,16.0745165 C18.0970681,16.4321909 17.6710673,16.5860923 17.3133928,16.4182669 L17.3133928,16.4182668 Z" id="形状"></path>
            <rect id="矩形" fill="#ffffff" opacity="0" x="0" y="0" width="26" height="26"></rect>
        </g>
    </g>
</svg>