<?xml version="1.0" encoding="UTF-8"?>
<svg width="206px" height="206px" viewBox="0 0 206 206" version="1.1" xmlns="http://www.w3.org/2000/svg" xmlns:xlink="http://www.w3.org/1999/xlink">
    <!-- Generator: Sketch 55.2 (78181) - https://sketchapp.com -->
    <title>卡片底纹/教材书籍@hdpi</title>
    <desc>Created with Sketch.</desc>
    <g id="卡片底纹/教材书籍" stroke="none" stroke-width="1" fill="none" fill-rule="evenodd">
        <g id="图标" transform="translate(2.000000, 20.000000)" fill="#FFFFFF">
            <path d="M118.180392,0.227944186 L189.152715,0.227944186 C193.198769,0.732093756 196.888019,2.85828081 199.41897,6.14458814 C201.041979,8.35686972 202.03737,10.9885233 202.294672,13.7474756 L202.294672,149.416122 C202.263172,156.869289 196.397729,162.903247 189.152715,162.935653 L124.650721,165.893975 C120.766554,167.205999 117.13612,169.208539 113.924353,171.810619 C106.763856,177.727263 106.073687,183.407241 102.133976,183.643907 C98.1942641,183.880573 97.0439834,178.259761 89.6246725,172.402283 C86.0992123,169.640897 82.1408348,167.519802 77.9205658,166.130641 L14.137498,162.935653 C10.2241705,162.272685 6.67810236,160.170121 4.1588125,157.019009 C2.4751181,154.813573 1.38427522,152.191745 0.995540426,149.416122 L0.995540426,13.7474756 C1.1699509,9.76578422 2.92715175,6.03275228 5.85547661,3.42293192 C8.19638016,1.44441871 11.1091961,0.320730341 14.137498,0.227944186 L83.3556424,0.523776384 C90.1632911,2.44622392 95.1709901,8.40382447 96.0374877,15.6112185 L96.3825719,89.1551029 C96.3106547,91.2689162 97.3404118,93.2616299 99.0839437,94.3826081 C100.827476,95.5035863 103.019898,95.5825257 104.835347,94.5896906 C106.650797,93.5968556 107.813462,91.6830812 107.885379,89.5692679 C107.885379,64.9363069 107.885379,40.2836238 107.885379,15.6112185 C107.338496,8.62125755 111.637889,2.19690856 118.180392,0.227944186 Z" id="路径"></path>
            <path d="M102.176486,181.583553 C98.7238637,181.583553 95.9249602,178.712045 95.9249602,175.16986 L95.9249602,79.1568759 C95.9249602,82.6990608 98.7238637,85.5705689 102.176486,85.5705689 C105.629108,85.5705689 108.428012,82.6990608 108.428012,79.1568759 L108.428012,175.16986 C108.428012,178.712045 105.629108,181.583553 102.176486,181.583553 Z" id="路径"></path>
        </g>
    </g>
</svg>