<?xml version="1.0" encoding="UTF-8"?>
<svg width="206px" height="206px" viewBox="0 0 206 206" version="1.1" xmlns="http://www.w3.org/2000/svg" xmlns:xlink="http://www.w3.org/1999/xlink">
    <!-- Generator: Sketch 55.2 (78181) - https://sketchapp.com -->
    <title>卡片底纹/家用电器@hdpi</title>
    <desc>Created with Sketch.</desc>
    <defs>
        <filter x="-29.7%" y="-32.1%" width="159.5%" height="164.2%" filterUnits="objectBoundingBox" id="filter-1">
            <feOffset dx="0" dy="8" in="SourceAlpha" result="shadowOffsetOuter1"></feOffset>
            <feGaussianBlur stdDeviation="10.5" in="shadowOffsetOuter1" result="shadowBlurOuter1"></feGaussianBlur>
            <feColorMatrix values="0 0 0 0 0.928045743   0 0 0 0 0.928045743   0 0 0 0 0.928045743  0 0 0 0.195749563 0" type="matrix" in="shadowBlurOuter1" result="shadowMatrixOuter1"></feColorMatrix>
            <feMerge>
                <feMergeNode in="shadowMatrixOuter1"></feMergeNode>
                <feMergeNode in="SourceGraphic"></feMergeNode>
            </feMerge>
        </filter>
    </defs>
    <g id="卡片底纹/家用电器" stroke="none" stroke-width="1" fill="none" fill-rule="evenodd">
        <g id="家用电器备份" filter="url(#filter-1)" transform="translate(8.000000, 15.000000)">
            <path d="M174.795858,169.4275 C155.916626,173.031488 136.759748,174.927254 117.550553,175.0925 C96.469701,175.260703 75.4220174,173.363586 54.6998659,169.4275 C51.2898692,168.458162 48.1658413,166.654701 45.6012743,164.175 C42.800844,161.434614 40.7641848,157.990589 39.6980215,154.1925 L39.6980215,104.6925 L131.090124,58.905 C132.931506,58.905 160.55223,57.09 174.795858,58.905 C178.720968,59.1481293 182.450926,60.72724 185.383803,63.3875 C188.23142,66.2597208 189.822049,70.1742209 189.797978,74.25 L189.797978,154.275 C189.72364,162.644295 183.037351,169.397731 174.795858,169.4275 Z" id="路径" fill="#FFFFFF" fill-rule="nonzero"></path>
            <path d="M151.074531,156.09 C139.620054,157.3825 127.271965,158.29 114.111502,158.62 C94.6707519,159.117518 75.2191849,158.272236 55.8913481,156.09 C53.7601665,156.080887 51.7178618,155.221639 50.2047284,153.6975 C48.6874084,152.158553 47.8308182,150.072763 47.8217639,147.895 L47.8217639,88 C47.8217639,83.4436508 51.4588873,79.75 55.9455064,79.75 L151.074531,79.75 C155.56115,79.75 159.198273,83.4436508 159.198273,88 L159.198273,147.895 C159.168503,152.429856 155.540084,156.090101 151.074531,156.09 L151.074531,156.09 Z" id="路径" stroke="#FFFFFF" stroke-width="8.1648"></path>
            <path d="M97.4849095,66.605 C96.1982082,67.2878238 95.3679544,68.6158947 95.3068967,70.0889411 C95.245839,71.5619874 95.9632535,72.9562186 97.1888971,73.7464411 C98.4145406,74.5366636 99.9622089,74.6028239 101.24891,73.92 L39.7251006,104.6925 L39.7251006,95.37 L97.4849095,66.605 Z" id="路径" fill="#FFFFFF" fill-rule="nonzero"></path>
            <path d="M77.6358987,7.5075 L78.2045607,9.5975 C59.7382361,9.75036376 41.5258571,13.9824489 24.8315728,22 C5.4158283,31.4325 1.81430248,39.9575 0.758215962,43.7525 C-0.568661972,48.51 0.054158283,52.47 1.13732394,59.0425 C3.6556841,74.25 4.87424547,85.6625 13.5395708,92.1525 C22.204896,98.6425 34.444668,96.8275 39.0752012,95.7275 L138.401492,46.2275 C151.670272,37.565 151.697351,31.46 151.507797,29.7275 C150.505869,20.3775 131.794182,12.815 104.119299,11.0825 C101.546781,7.315 99.5158451,4.3725 98.2431254,2.42 C97.6958517,1.31266386 96.7116796,0.493100239 95.5352113,0.165 C95.1264056,0.0602339901 94.6983764,0.0602339901 94.2895708,0.165 L79.0981724,5.225 C78.8611212,5.37123956 78.6428252,5.54674313 78.448273,5.7475 C77.9975142,6.22973742 77.7125254,6.84716252 77.6358987,7.5075 Z M88.9549799,9.68 C86.7344903,9.68 83.0246479,9.4325 78.1233233,9.68 L88.9549799,9.68 Z M104.09222,11 C98.4056003,10.34 93.2605634,9.955 88.9549799,9.735 L104.09222,11 Z M40.8895037,50.6275 C25.454393,56.7875 22.3673709,55.88 20.7697015,54.3125 C17.6556003,51.2325 19.4699027,44.9075 19.6865359,44.1925 C21.7445506,37.3175 28.7851274,34.485 38.3440644,30.635 C46.0345406,27.5 54.7811033,24.145 65.5586016,26.345 C68.8351777,27.005 75.767438,28.4075 76.2007042,31.5425 C76.4173374,33.2475 74.7113514,35.3925 59.4928739,42.5425 L40.8895037,50.6275 Z M58.7346579,41.0025 L59.4928739,42.5425 L40.8895037,50.6275 L40.1042086,47.0525 L58.2201543,39.93 L58.7346579,40.975 L58.7346579,41.0025 Z" id="形状" fill="#FFFFFF" fill-rule="nonzero"></path>
        </g>
    </g>
</svg>