<?xml version="1.0" encoding="UTF-8"?>
<svg width="75px" height="75px" viewBox="0 0 75 75" version="1.1" xmlns="http://www.w3.org/2000/svg" xmlns:xlink="http://www.w3.org/1999/xlink">
    <!-- Generator: Sketch 55.2 (78181) - https://sketchapp.com -->
    <title>个人icon/留言@hdpi</title>
    <desc>Created with Sketch.</desc>
    <g id="个人icon/留言" stroke="none" stroke-width="1" fill="none" fill-rule="evenodd">
        <g id="留言">
            <path d="M17.5517241,51.4705882 C16.9913793,49.8164706 15.6913793,48.7435294 14.8732759,45.5023529 C14.0615361,42.8157641 13.6425681,40.026463 13.6293103,37.2205882 C13.6482367,25.2943057 21.3416941,14.7274416 32.7071251,11.0174566 C44.0725561,7.30747154 56.5420746,11.2925933 63.628355,20.8995436 C70.7146355,30.5064938 70.8166157,43.5646946 63.88124,53.2805555 C56.9458643,62.9964164 44.5400996,67.1747525 33.1181034,63.6417647 C32.3687943,63.4163571 31.6411867,63.1246081 30.9439655,62.77 C29.7121117,62.0253917 28.4095244,61.4039438 27.0551724,60.9147059 C26.2034483,60.68 24.5,61.0823529 21.137931,61.8870588 C17.237931,62.8258824 16.5543103,63.0047059 16.1172414,62.5576471 C15.4560345,61.8982353 16.2741379,60.7023529 17.0025862,57.0364706 C17.6077586,53.9741176 17.9103448,52.4429412 17.5517241,51.4705882 Z" id="路径" stroke="#FFE896" stroke-width="3.36" stroke-linecap="round" stroke-linejoin="round"></path>
            <path d="M9.48275862,51.4705882 C8.92241379,49.8276471 7.62241379,48.7547059 6.80431034,45.5135294 C5.99893723,42.8484732 5.58003796,40.0822113 5.56034483,37.2988235 C5.59860221,25.3767106 13.3039602,14.824935 24.6699611,11.1299701 C36.0359621,7.43500523 48.4964545,11.4310794 55.5725136,21.0404045 C62.6485727,30.6497295 62.7426059,43.7027663 55.8057198,53.4124922 C48.8688337,63.1222181 36.4671994,67.296426 25.0491379,63.7647059 C24.2963118,63.5390282 23.5650065,63.2473003 22.8637931,62.8929412 C21.6343575,62.1438808 20.3313103,61.5222134 18.975,61.0376471 C18.1232759,60.8029412 16.4310345,61.2052941 13.0689655,62.01 C9.16896552,62.9488235 8.47413793,63.1276471 8.04827586,62.6805882 C7.38706897,62.0211765 8.20517241,60.8252941 8.92241379,57.0923529 C9.48275862,54.0523529 9.84137931,52.5211765 9.48275862,51.4705882 Z" id="路径" stroke="#000000" stroke-width="3.36" stroke-linecap="round" stroke-linejoin="round"></path>
            <ellipse id="椭圆形" fill="#000000" fill-rule="nonzero" cx="35.7405172" cy="37.4105882" rx="2.21896552" ry="4.38117647"></ellipse>
            <ellipse id="椭圆形" fill="#000000" fill-rule="nonzero" cx="48.6060345" cy="37.4105882" rx="1.9387931" ry="3.83352941"></ellipse>
            <rect id="矩形备份" fill="#D8D8D8" opacity="0" x="0" y="0" width="75" height="75"></rect>
        </g>
    </g>
</svg>