<?xml version="1.0" encoding="UTF-8"?>
<svg width="206px" height="206px" viewBox="0 0 206 206" version="1.1" xmlns="http://www.w3.org/2000/svg" xmlns:xlink="http://www.w3.org/1999/xlink">
    <!-- Generator: Sketch 55.2 (78181) - https://sketchapp.com -->
    <title>卡片底纹/美妆日化@hdpi</title>
    <desc>Created with Sketch.</desc>
    <defs>
        <filter x="-32.2%" y="-31.3%" width="164.3%" height="162.6%" filterUnits="objectBoundingBox" id="filter-1">
            <feOffset dx="0" dy="9" in="SourceAlpha" result="shadowOffsetOuter1"></feOffset>
            <feGaussianBlur stdDeviation="11" in="shadowOffsetOuter1" result="shadowBlurOuter1"></feGaussianBlur>
            <feColorMatrix values="0 0 0 0 0.928045743   0 0 0 0 0.928045743   0 0 0 0 0.928045743  0 0 0 0.195749563 0" type="matrix" in="shadowBlurOuter1" result="shadowMatrixOuter1"></feColorMatrix>
            <feMerge>
                <feMergeNode in="shadowMatrixOuter1"></feMergeNode>
                <feMergeNode in="SourceGraphic"></feMergeNode>
            </feMerge>
        </filter>
    </defs>
    <g id="卡片底纹/美妆日化" stroke="none" stroke-width="1" fill="none" fill-rule="evenodd">
        <g id="美妆日化备份" filter="url(#filter-1)" transform="translate(11.000000, 7.000000)" fill="#FFFFFF" fill-rule="nonzero">
            <rect id="矩形" x="34.6478571" y="8.6971831" width="10.4921429" height="91.7084507"></rect>
            <path d="M40.885,187.752469 C40.885,187.752469 11.8135714,187.939437 4.20214286,179.723944 C2.40840951,177.727255 1.096637,175.336404 0.37,172.739437 C0.125178775,171.650708 0.00107788972,170.537721 0,169.421127 L0,111.61831 C0.0290650996,103.624408 6.42951636,97.1555127 14.3242857,97.1408451 L67.1814286,97.1408451 C75.0658789,97.1701964 81.4502985,103.634816 81.4792857,111.61831 L81.4792857,169.421127 C80.9926166,173.152163 79.5432054,176.68737 77.2771429,179.670423 C75.8235714,181.650704 70.5114286,187.564789 40.885,187.752469 Z" id="路径"></path>
            <path d="M165.601429,16.671831 L165.601429,101.074648 C165.601429,103.646272 163.542578,105.730986 161.002857,105.730986 C158.463136,105.730986 156.404286,103.646272 156.404286,101.074648 L156.404286,31.7380282 C156.020644,25.5598874 153.236501,19.7869509 148.660714,15.6816901 C146.007382,13.4119068 142.852414,11.823787 139.463571,11.0521127 L112.136429,11.2394366 C109.582881,11.0000571 107.036506,11.7668561 105.027143,13.3802817 C102.76191,15.6482599 101.494823,18.7448334 101.512143,21.9704225 C100.904286,29.9985915 101.036429,90.5577465 101.882143,172.980282 C102.405414,174.972598 103.302705,176.844236 104.525,178.492958 C106.662853,181.092094 109.499739,183.00711 112.691429,184.005634 C126.883571,189.143662 158.465714,189.143662 172.657857,184.005634 C175.849547,183.00711 178.686433,181.092094 180.824286,178.492958 C182.051168,176.847075 182.948911,174.974491 183.467143,172.980282 C183.784286,89.4338028 183.467143,28.0985915 182.885714,21.9704225 C182.612862,19.7298991 181.825391,17.5852669 180.586429,15.7084507 C178.964412,13.3898345 176.603166,11.7076936 173.9,10.9450704 C172.421748,10.4100619 170.80611,10.4100619 169.327857,10.9450704 C167.216472,12.1011129 165.817376,14.2512371 165.601429,16.671831 Z" id="路径"></path>
            <rect id="矩形" x="30.4457143" y="0" width="18.8964286" height="25.9042254" rx="9.13136717"></rect>
            <path d="M156.404286,186.628169 L156.404286,101.690141 C157.346426,103.353815 159.095654,104.379914 160.989643,104.379914 C162.883631,104.379914 164.63286,103.353815 165.575,101.690141 L165.575,185.798592 C163.459212,186.298035 161.29834,186.576021 159.126429,186.628169 L156.404286,186.628169 Z" id="路径"></path>
        </g>
    </g>
</svg>