<?xml version="1.0" encoding="UTF-8"?>
<svg width="206px" height="206px" viewBox="0 0 206 206" version="1.1" xmlns="http://www.w3.org/2000/svg" xmlns:xlink="http://www.w3.org/1999/xlink">
    <!-- Generator: Sketch 55.2 (78181) - https://sketchapp.com -->
    <title>卡片底纹/生活用品@hdpi</title>
    <desc>Created with Sketch.</desc>
    <defs>
        <filter x="-43.1%" y="-31.3%" width="186.2%" height="162.6%" filterUnits="objectBoundingBox" id="filter-1">
            <feOffset dx="0" dy="9" in="SourceAlpha" result="shadowOffsetOuter1"></feOffset>
            <feGaussianBlur stdDeviation="11" in="shadowOffsetOuter1" result="shadowBlurOuter1"></feGaussianBlur>
            <feColorMatrix values="0 0 0 0 0.928045743   0 0 0 0 0.928045743   0 0 0 0 0.928045743  0 0 0 0.195749563 0" type="matrix" in="shadowBlurOuter1" result="shadowMatrixOuter1"></feColorMatrix>
            <feMerge>
                <feMergeNode in="shadowMatrixOuter1"></feMergeNode>
                <feMergeNode in="SourceGraphic"></feMergeNode>
            </feMerge>
        </filter>
    </defs>
    <g id="卡片底纹/生活用品" stroke="none" stroke-width="1" fill="none" fill-rule="evenodd">
        <g id="生活用品备份" filter="url(#filter-1)" transform="translate(35.000000, 7.000000)">
            <path d="M48.4126531,178.410127 C49.7053728,179.920395 51.3572101,181.109262 53.2285714,181.876258 C54.505724,182.417823 55.8496985,182.800035 57.2277551,183.013581 C57.7941508,184.413256 58.6683818,185.678741 59.7906122,186.723424 C64.7249769,190.735827 71.9513496,190.735827 76.8857143,186.723424 C77.9665132,185.698914 78.7858766,184.447666 79.2795918,183.06774 C82.6579256,182.389232 85.7705453,180.813086 88.2636735,178.518444 C98.3461224,168.688716 86.1514286,151.953806 96.7126531,131.9694 C98.5745033,128.464171 100.913869,125.213139 103.66898,122.302146 C129.82085,107.130979 142.330622,77.1188003 134.314329,48.7809236 C126.298036,20.4430469 99.701513,0.658067112 69.1604833,0.31340308 C38.6194537,-0.0312609533 11.5472941,19.1480528 2.84146449,47.2972157 C-5.86436516,75.4463786 5.90934466,105.732603 31.6836735,121.489772 C34.9554104,124.472268 37.7123735,127.936637 39.8510204,131.752767 C40.6673987,133.235633 41.3915288,134.763778 42.0195918,136.329142 L42.6391837,137.926811 C43.8314297,141.684246 45.7945538,145.173922 48.4126531,148.189805 C48.6536803,148.421723 48.9178041,148.63033 49.2012245,148.812626 C50.67617,149.816606 52.34077,150.534082 54.1016327,150.924799 C61.8407064,151.705133 69.6393274,151.77767 77.3926531,151.141432 C78.8355568,152.428396 79.6763476,154.22138 79.7240779,156.113188 C79.7718082,158.004997 79.022427,159.835071 77.6461224,161.187793 C74.5609404,161.638852 71.4447256,161.865155 68.3240816,161.864772 C61.9950624,161.853818 55.7026568,160.941271 49.6518367,159.156858 C48.8066634,159.222387 47.9972034,159.513078 47.3142857,159.996311 C47.0044898,160.240023 45.9061224,161.160714 45.4836735,164.572686 C45.2175264,166.368894 45.2175264,168.192307 45.4836735,169.988514 C45.5484383,173.016481 46.5700192,175.953804 48.4126531,178.410127 Z" id="路径" fill="#FFFFFF" fill-rule="nonzero"></path>
            <path d="M63.7053061,77.5132461 C65.6204082,77.6486419 67.62,77.7028001 69.7604082,77.675721 C76.073747,77.547212 82.3232291,76.4314016 88.2636735,74.3720657 C83.5322449,92.6956182 78.7914286,111.037223 74.0412245,129.396881 C71.8027824,130.342961 69.3505473,130.725061 66.9159184,130.507126 C65.4361603,130.360844 63.9906444,129.985944 62.635102,129.396881 C62.635102,131.617371 48.5534694,74.3720657 48.5534694,74.3720657" id="路径" stroke="#FFFFFF" stroke-width="8.12592" stroke-linecap="round" stroke-linejoin="round"></path>
            <path d="M85.9261224,160.02339 C88.0706695,159.528294 90.1859696,158.922652 92.2628571,158.209088 C92.2628571,155.013749 92.2628571,151.84549 92.2628571,148.67723 C89.8220408,149.272971 87.5408163,149.760396 85.4191837,150.139504 C82.3212245,150.708166 80.5187755,150.924799 79.7865306,151.033115 L77.2236735,151.249748 C78.7580365,152.476681 79.6842572,154.268048 79.7753607,156.184867 C79.8664643,158.101686 79.1140313,159.966813 77.702449,161.323189 C80.4709067,161.067877 83.2183447,160.633629 85.9261224,160.02339 L85.9261224,160.02339 Z" id="路径" fill="#FFFFFF" fill-rule="nonzero"></path>
        </g>
    </g>
</svg>