<?xml version="1.0" encoding="UTF-8"?>
<svg width="75px" height="75px" viewBox="0 0 75 75" version="1.1" xmlns="http://www.w3.org/2000/svg" xmlns:xlink="http://www.w3.org/1999/xlink">
    <!-- Generator: Sketch 55.2 (78181) - https://sketchapp.com -->
    <title>个人icon/收藏@hdpi</title>
    <desc>Created with Sketch.</desc>
    <g id="个人icon/收藏" stroke="none" stroke-width="1" fill="none" fill-rule="evenodd">
        <g id="收藏">
            <path d="M72.3333333,27.75 C73.1666667,30.0811538 70.8777778,32.8696154 67.7111111,36.6730769 C65.673359,39.1458034 63.3747656,41.3896616 60.8555556,43.3653846 C60.8555556,45.0607692 61,48.195 61.1444444,52.1546154 C61.4,59.6276923 61.4888889,61.1892308 60.3222222,62.1930769 C59.8777778,62.55 58.6666667,63.3084615 50.4555556,60.955 C46.9666667,59.94 44.0777778,58.9026923 41.9888889,58.0884615 C40.0555556,58.6573077 37.2333333,59.5161538 33.8222222,60.6426923 C26.8444444,62.9961538 25.2222222,63.8661538 23.8888889,62.8846154 C22.5555556,61.9030769 22.7777778,60.2076923 22.8333333,52.2884615 C22.8333333,48.5407692 22.8333333,45.4734615 22.8333333,43.4769231 C20.978726,41.4873445 19.2282238,39.4024895 17.5888889,37.2307692 C14.1888889,32.6688462 12.5,30.3488462 13.0777778,28.4638462 C13.7111111,26.3557692 16.4111111,25.4857692 21.2888889,23.9242308 C24.1868576,23.0022766 27.1619321,22.3452429 30.1777778,21.9611538 C31.2888889,19.9088462 32.9,17.165 34.9555556,14.0307692 C39.5333333,7.015 40.7777778,6.63576923 41.6222222,6.60230769 C42.4666667,6.56884615 43.7777778,6.75846154 48.8111111,13.8188462 C51.1888889,17.165 52.9222222,20.0092308 54.0555556,21.9611538 C57.4003877,22.308438 60.7137916,22.9125141 63.9666667,23.7680769 C69.0444444,25.0953846 71.6555556,25.8203846 72.3333333,27.75 Z" id="收藏-2" stroke="#FFE896" stroke-width="3.36" stroke-linecap="round" stroke-linejoin="round"></path>
            <path d="M62.9333333,27.75 C63.7555556,30.0811538 61.4666667,32.8696154 58.3111111,36.6730769 C56.2676549,39.1405131 53.9696569,41.38379 51.4555556,43.3653846 C51.4555556,45.0607692 51.6,48.195 51.7333333,52.1546154 C51.9888889,59.6276923 52.0888889,61.1892308 50.9111111,62.1930769 C50.4777778,62.55 49.2555556,63.3084615 41.0555556,60.955 C37.5555556,59.94 34.6777778,58.9026923 32.5777778,58.0884615 C30.6555556,58.6573077 27.8222222,59.5161538 24.4111111,60.6426923 C17.4444444,62.9515385 15.8,63.8215385 14.4777778,62.8734615 C13.1555556,61.9253846 13.3666667,60.1965385 13.4222222,52.2773077 C13.4222222,48.5296154 13.4222222,45.4623077 13.4222222,43.4657692 C11.5654567,41.4851154 9.8183847,39.4036516 8.18888889,37.2307692 C4.77777778,32.6242308 3.08888889,30.3042308 3.66666667,28.4192308 C4.31111111,26.3111538 7,25.4411538 11.8888889,23.8796154 C14.7647829,22.9600583 17.7175097,22.3030323 20.7111111,21.9165385 C21.8222222,19.8642308 23.4444444,17.1203846 25.4888889,13.9861538 C30.0666667,6.97038462 31.3222222,6.59115385 32.1555556,6.55769231 C32.9888889,6.52423077 34.3,6.71384615 39.3444444,13.7742308 C41.7111111,17.1203846 43.4555556,19.9646154 44.5777778,21.9165385 C47.9228819,22.2619019 51.2364319,22.8660047 54.4888889,23.7234615 C59.6666667,25.0953846 62.2444444,25.8203846 62.9333333,27.75 Z" id="收藏-3" stroke="#000000" stroke-width="3.36" stroke-linecap="round" stroke-linejoin="round"></path>
            <rect id="矩形备份-2" fill="#D8D8D8" opacity="0" x="0" y="0" width="75" height="75"></rect>
        </g>
    </g>
</svg>