<?xml version="1.0" encoding="UTF-8"?>
<svg width="206px" height="206px" viewBox="0 0 206 206" version="1.1" xmlns="http://www.w3.org/2000/svg" xmlns:xlink="http://www.w3.org/1999/xlink">
    <!-- Generator: Sketch 55.2 (78181) - https://sketchapp.com -->
    <title>卡片底纹/数码产品@hdpi</title>
    <desc>Created with Sketch.</desc>
    <defs>
        <filter x="-29.3%" y="-34.5%" width="158.5%" height="168.9%" filterUnits="objectBoundingBox" id="filter-1">
            <feOffset dx="0" dy="8" in="SourceAlpha" result="shadowOffsetOuter1"></feOffset>
            <feGaussianBlur stdDeviation="10.5" in="shadowOffsetOuter1" result="shadowBlurOuter1"></feGaussianBlur>
            <feColorMatrix values="0 0 0 0 0.928045743   0 0 0 0 0.928045743   0 0 0 0 0.928045743  0 0 0 0.195749563 0" type="matrix" in="shadowBlurOuter1" result="shadowMatrixOuter1"></feColorMatrix>
            <feMerge>
                <feMergeNode in="shadowMatrixOuter1"></feMergeNode>
                <feMergeNode in="SourceGraphic"></feMergeNode>
            </feMerge>
        </filter>
    </defs>
    <g id="卡片底纹/数码产品" stroke="none" stroke-width="1" fill="none" fill-rule="evenodd">
        <g id="数码产品备份" filter="url(#filter-1)" transform="translate(6.000000, 21.000000)" fill="#FFFFFF" fill-rule="nonzero">
            <path d="M18.4367446,0.446708701 L44.7139043,0.446708701 C46.3252518,0.443650278 47.8899457,0.989744061 49.1520652,1.99567112 C50.3188584,3.00567912 51.126333,4.36979988 51.4523315,5.88166456 L51.8582609,9.68613367 C94.5349663,9.08828852 125.818588,9.14263808 132.20521,9.68613367 C134.667613,9.7674192 137.019635,10.7314309 138.835389,12.4036116 C140.652578,14.286928 141.595672,16.8517894 141.433337,19.4690542 L141.433337,93.139881 C141.433337,96.1415242 143.856547,98.5748368 146.845728,98.5748368 C149.834909,98.5748368 152.25812,96.1415242 152.25812,93.139881 L152.25812,27.621488 C152.245056,25.9824814 152.482351,24.3511542 152.96173,22.7843773 C153.898847,19.8808314 155.51326,17.2441445 157.670511,15.0939148 C161.312509,11.5953674 166.161406,9.64772259 171.201489,9.65895889 C176.24646,9.62190479 181.104661,11.5732867 184.732467,15.0939148 C187.166682,17.4809233 188.89088,20.5014392 189.711867,23.8170189 C190.010711,25.0626012 190.15613,26.3403162 190.144859,27.621488 L190.144859,130.885649 C190.227401,134.955061 189.297229,138.980818 187.438663,142.597979 C183.460555,150.071044 175.991455,152.924395 171.201489,154.419008 C141.812204,163.549734 95.4280109,163.278844 95.4280109,163.278844 C95.4280109,163.278844 41.7641511,162.979064 14.2421413,151.456957 C9.7584731,149.785664 5.95211336,146.670547 3.4173587,142.597979 C2.06371865,140.31558 1.14595583,137.799642 0.711163043,135.179265 L0.711163043,27.4312646 C0.33712213,25.4835649 0.33712213,23.4820371 0.711163043,21.5343375 C1.45005188,18.0378454 3.36038776,14.9014246 6.12355435,12.6481846 C7.71726205,11.3210075 9.55670836,10.3235654 11.5359457,9.71330845 L11.7524413,5.88166456 C12.2730627,2.62268929 15.1539907,0.280228786 18.4367446,0.446708701 Z" id="路径"></path>
            <path d="M141.433337,160.533334 L141.433337,92.8409584 C141.433337,95.8426016 143.856547,98.2759142 146.845728,98.2759142 C149.834909,98.2759142 152.25812,95.8426016 152.25812,92.8409584 L152.25812,158.984371 L141.433337,160.533334 Z" id="路径"></path>
        </g>
    </g>
</svg>