<?xml version="1.0" encoding="UTF-8"?>
<svg width="46px" height="46px" viewBox="0 0 46 46" version="1.1" xmlns="http://www.w3.org/2000/svg" xmlns:xlink="http://www.w3.org/1999/xlink">
    <!-- Generator: Sketch 55.2 (78181) - https://sketchapp.com -->
    <title>icon/查看@hdpi</title>
    <desc>Created with Sketch.</desc>
    <g id="icon/查看" stroke="none" stroke-width="1" fill="none" fill-rule="evenodd">
        <g id="编组">
            <g id="查看" transform="translate(1.000000, 7.000000)" fill="#ffffff">
                <path d="M42,15.5046652 C42,15.2508179 41.9573774,15.038501 41.9452355,15.0131974 C41.9360661,14.88744 41.8934435,14.6581864 41.8537934,14.5378548 C41.8432133,14.5079368 41.8294088,14.4764974 41.8173173,14.4465793 C41.7959052,14.3775649 41.7731329,14.3101225 41.7472369,14.256422 C37.8743236,5.73042813 29.5360127,0 21.0010634,0 C12.4677264,0 4.13012079,5.72515443 0.274790605,14.2050035 C0.228339023,14.2970903 0.19554078,14.3852219 0.174985199,14.461944 C0.165866179,14.4871969 0.155185338,14.5109793 0.146822038,14.5332404 C0.0706454735,14.7578795 0.0691340337,14.9142649 0.0752301741,14.8736473 C0.0394594329,15.0384503 0.0066611898,15.3666364 0.0066611898,15.3666364 C-0.00245783016,15.4655182 -0.00245783016,15.5444715 0.00817262957,15.6426434 C0.00817262957,15.6426434 0.0409204913,15.9294006 0.0569417529,15.9876141 C0.0614760722,16.0688493 0.0812759332,16.1870003 0.104904775,16.2943505 L0.103393335,16.2943505 L0.103393317,16.2943504 C0.123592853,16.3865057 0.15292733,16.4763887 0.190956061,16.5626496 C0.210806303,16.6300921 0.234435145,16.6929708 0.254990726,16.7405354 C4.13314366,25.2679999 12.4692882,31 21.0010634,31 C29.5375241,31 37.8758854,25.2726651 41.7046143,16.8355634 L41.7046142,16.8355634 C41.7565534,16.7386405 41.7979058,16.6363389 41.8279477,16.5304497 C41.84014,16.5028642 41.8508712,16.4783213 41.8584284,16.4537783 C41.9255364,16.2574345 41.9391897,16.0873072 41.9330936,16.0873072 L41.9316325,16.0888284 C41.9589896,15.9524222 42,15.7485229 42,15.5046652 L42,15.5046652 Z M39.1723985,15.6089221 C39.170887,15.6151086 39.1678138,15.6227149 39.1647909,15.6289013 C39.1602566,15.6472579 39.1526994,15.6687583 39.1480139,15.6902588 C35.7017297,23.1657223 28.4253564,28.1816661 21.0010634,28.1816661 C13.5951597,28.1816661 6.33163358,23.1796165 2.85109008,15.6779366 C2.8426764,15.651923 2.83658026,15.6273294 2.82741085,15.6028878 C2.82589942,15.5782941 2.8213651,15.5583657 2.81985366,15.5445222 C2.81683078,15.5293096 2.8138079,15.5077585 2.81149036,15.4893005 L2.81149036,15.4701834 C2.81985366,15.438744 2.82589942,15.4073047 2.82902306,15.3728228 C2.83506882,15.3544663 2.83965352,15.3368197 2.84655576,15.3168912 C6.29425064,7.83747238 13.5767705,2.81924671 21.0010131,2.81924671 C28.4282785,2.81924671 35.7093373,7.84203615 39.1464521,15.3099442 C39.149475,15.3244975 39.1525986,15.3368197 39.1571833,15.3467586 C39.1602062,15.3590301 39.1632291,15.3713016 39.1692748,15.3843337 C39.1769328,15.440316 39.1830289,15.4955377 39.1906365,15.5230725 C39.1815679,15.5521792 39.1770336,15.5798154 39.1723985,15.6089221 L39.1723985,15.6089221 Z M21.0010131,8.45454548 C17.1419043,8.45454548 14.0003263,11.6150104 14.0003263,15.5 C14.0003263,19.384229 17.1419043,22.5462152 21.0010131,22.5462152 C24.8601722,22.5462152 28.0017502,19.384229 28.0017502,15.5 C28.0017502,11.6150104 24.8601722,8.45454548 21.0010131,8.45454548 L21.0010131,8.45454548 Z M21.0010131,19.7277292 C18.6867469,19.7277292 16.8006715,17.8308721 16.8006715,15.5000508 C16.8006715,13.16999 18.6867469,11.2731837 21.0010131,11.2731837 C23.3167907,11.2731837 25.2015057,13.1700407 25.2015057,15.5000508 C25.2015057,17.8308721 23.3167907,19.7277292 21.0010131,19.7277292 Z" id="形状"></path>
            </g>
            <rect id="矩形" opacity="0" x="0" y="0" width="46" height="46"></rect>
        </g>
    </g>
</svg>