<?xml version="1.0" encoding="UTF-8"?>
<svg width="30px" height="30px" viewBox="0 0 30 30" version="1.1" xmlns="http://www.w3.org/2000/svg" xmlns:xlink="http://www.w3.org/1999/xlink">
    <!-- Generator: Sketch 55.2 (78181) - https://sketchapp.com -->
    <title>小icon/问好@hdpi</title>
    <desc>Created with Sketch.</desc>
    <g id="小icon/问好" stroke="none" stroke-width="1" fill="none" fill-rule="evenodd">
        <g id="wen-hao" fill="#FF7911">
            <path d="M15.0000192,0.699594356 L15.0000186,0.699594356 C7.10211681,0.699594356 0.699593731,7.10211743 0.699593731,15.0000192 C0.699593731,22.897921 7.10211681,29.300444 15.0000186,29.300444 C22.8979203,29.300444 29.3004434,22.897921 29.3004434,15.0000192 L29.3004434,15.0000198 C29.3004434,7.10211806 22.8979203,0.699594356 15.0000186,0.699594356 L15.0000192,0.699594356 Z M15.0000192,27.8703887 L15.0000186,27.8703887 C7.89189416,27.8703887 2.12964917,22.1081115 2.12964917,15.0000192 C2.12964917,7.89189472 7.89192638,2.12964973 15.0000186,2.12964973 C22.1081431,2.12964973 27.8703881,7.89192694 27.8703881,15.0000192 L27.8703881,15.0000186 C27.8703881,22.1081431 22.1081431,27.8703887 15.0000186,27.8703887 L15.0000192,27.8703887 Z M15.3575411,20.6486976 L15.3575411,20.6486976 C14.7268666,20.6103503 14.1845187,21.0905243 14.1461722,21.7211989 C14.1078248,22.3518735 14.5879989,22.8942214 15.2186735,22.9325678 C15.849348,22.9709152 16.3916959,22.4907411 16.4300424,21.8600665 C16.4328543,21.8138198 16.4328543,21.767445 16.4300424,21.7211983 L16.4300424,21.7212305 C16.4300424,21.128912 15.9498918,20.6487325 15.3575733,20.648697 L15.3575411,20.6486976 Z M15.3575411,7.9213176 L15.3575413,7.92131762 C14.1872259,7.85349255 13.0355117,8.2373858 12.1399409,8.99381886 L12.139941,8.99381877 C11.2995357,9.83581604 10.7916703,10.9531187 10.7098856,12.1399406 L12.4974307,12.3544408 L12.4974307,12.3544401 C12.5684214,11.5019048 12.9205338,10.6970873 13.4984856,10.0663515 L13.4984856,10.0663516 C13.9971149,9.58819905 14.6670156,9.33055061 15.3575414,9.35133999 L15.3575414,9.35133999 C16.10467,9.32694964 16.8288468,9.61144861 17.3595867,10.1378624 L17.3595868,10.1378624 C17.8639395,10.6246162 18.1479848,11.295993 18.1461092,11.9969183 L18.1461092,11.9969153 C18.1432829,12.3728966 18.0448603,12.7419814 17.8600997,13.0694487 L17.8601,13.0694484 C17.5246726,13.5801723 17.1149984,14.0380511 16.6445771,14.427993 L15.4290219,15.7150267 L15.4290221,15.7150265 C15.1252645,16.0779947 14.8836642,16.4887292 14.7140105,16.9305816 L14.7140102,16.9305825 C14.5068853,17.5278348 14.4099751,18.1577456 14.4279995,18.7896383 L14.4279995,19.3616605 L16.1440659,19.3616605 L16.1440658,19.3616605 C16.1357456,18.8337041 16.1836797,18.3063705 16.2870568,17.7885761 L16.2870569,17.7885758 C16.3546609,17.4837174 16.4757027,17.1932345 16.6445788,16.9305748 L17.8601017,15.7150197 L17.8601018,15.7150196 C18.533525,15.1417406 19.1126273,14.4661454 19.5761973,13.7129872 L19.5761973,13.7129871 C19.8665645,13.1624407 20.014073,12.5478054 20.0051978,11.925442 L20.0051978,11.9254374 C20.0093375,10.8309415 19.5400649,9.78810809 18.7181609,9.06532668 L18.7181611,9.0653269 C17.8006247,8.23527281 16.5937998,7.79876674 15.3575713,7.849804 L15.3575411,7.9213176 Z" id="形状"></path>
        </g>
    </g>
</svg>