<?xml version="1.0" encoding="UTF-8"?>
<svg width="206px" height="206px" viewBox="0 0 206 206" version="1.1" xmlns="http://www.w3.org/2000/svg" xmlns:xlink="http://www.w3.org/1999/xlink">
    <!-- Generator: Sketch 55.2 (78181) - https://sketchapp.com -->
    <title>卡片底纹/衣物@hdpi</title>
    <desc>Created with Sketch.</desc>
    <g id="卡片底纹/衣物" stroke="none" stroke-width="1" fill="none" fill-rule="evenodd">
        <path d="M167.088663,64.52586 L167.088663,166.797828 C167.088663,175.687462 161.246525,183.006595 154.112658,183.006595 C137.374426,187.596773 120.111369,189.947942 102.766434,189.999887 C85.1850473,190.018751 67.6799432,187.666889 50.7156307,183.006595 C47.154152,182.742715 43.8549327,181.018781 41.5854559,178.235824 C39.067257,174.969119 37.7217493,170.936622 37.7689842,166.797828 L37.7689842,65.0975304 L26.9654333,70.8786752 C23.4626903,72.7309184 19.3736922,73.100154 15.600838,71.9048955 C11.8279838,70.709637 8.68142087,68.0481406 6.85556274,64.5077706 L1.71800458,54.5217482 C-2.1128402,47.1115135 0.674994857,37.9695917 7.9711468,34.0163253 L38.1799888,17.8371911 C39.3946516,17.1990303 40.6791711,16.7388883 41.9960624,16.4600659 C42.1115126,16.353893 42.2290936,16.2499014 42.3487503,16.1481606 L44.5615136,16.1481606 C44.8885745,16.1372657 45.2161262,16.1372499 45.5436298,16.1481606 L68.2714009,16.1481606 C73.4539922,30.8521466 87.3049733,40.6206888 102.766434,40.4761262 C117.424515,39.6054288 130.143362,29.9653842 135.059657,16 L160.688733,16.1481606 C160.705407,16.1563298 160.722058,16.1645395 160.738686,16.1727895 C163.173251,16.1487618 165.599487,16.7301325 167.793242,17.8964553 L198.060799,34.0459574 C205.313658,38.0202315 208.091314,47.1156096 204.313941,54.5217482 L199.147025,64.5374028 C197.332059,68.0730466 194.198232,70.7347427 190.436703,71.935462 C186.675173,73.1361813 182.594934,72.7772896 179.09587,70.9379394 L167.088663,64.52586 Z" id="形状结合" fill="#FFFFFF" fill-rule="nonzero"></path>
    </g>
</svg>